<?xml version="1.0" standalone="no"?><!DOCTYPE svg PUBLIC "-//W3C//DTD SVG 1.1//EN" "http://www.w3.org/Graphics/SVG/1.1/DTD/svg11.dtd"><svg t="1758776562176" class="icon" viewBox="0 0 1024 1024" version="1.1" xmlns="http://www.w3.org/2000/svg" p-id="9396" xmlns:xlink="http://www.w3.org/1999/xlink" width="128" height="128"><path d="M262.4 351.914667a32 32 0 0 1 32 32v161.109333a62.890667 62.890667 0 0 0 125.781333 0V383.914667a32 32 0 0 1 64 0v161.109333a126.890667 126.890667 0 1 1-253.781333 0V383.914667a32 32 0 0 1 32-32zM539.818667 383.914667a32 32 0 0 1 32-32h99.114666a122.666667 122.666667 0 1 1 0 245.333333h-67.114666v42.666667a32 32 0 0 1-64 0v-256z m64 149.333333h67.114666a58.666667 58.666667 0 1 0 0-117.333333h-67.114666v117.333333z" fill="#9499A0" p-id="9397"></path><path d="M512 213.248c-107.434667 0-201.258667 5.461333-267.52 10.837333a92.672 92.672 0 0 0-85.76 84.48 2301.738667 2301.738667 0 0 0-9.386667 203.349334c0 77.952 4.522667 149.248 9.386667 203.349333a92.672 92.672 0 0 0 85.76 84.48 3354.026667 3354.026667 0 0 0 267.52 10.837333c107.434667 0 201.258667-5.461333 267.52-10.837333a92.672 92.672 0 0 0 85.76-84.48 2301.44 2301.44 0 0 0 9.386667-203.349333c0-77.994667-4.522667-149.333333-9.386667-203.349334a92.672 92.672 0 0 0-85.76-84.48A3352.746667 3352.746667 0 0 0 512 213.248zM239.36 160.298667A3416.576 3416.576 0 0 1 512 149.248c109.568 0 205.141333 5.546667 272.64 11.050667a156.672 156.672 0 0 1 144.384 142.506666c4.992 55.466667 9.642667 128.725333 9.642667 209.109334s-4.693333 153.642667-9.642667 209.066666a156.672 156.672 0 0 1-144.341333 142.549334 3416.746667 3416.746667 0 0 1-272.682667 11.050666 3417.6 3417.6 0 0 1-272.64-11.050666 156.672 156.672 0 0 1-144.384-142.549334 2365.610667 2365.610667 0 0 1-9.642667-209.066666c0-80.341333 4.693333-153.6 9.642667-209.066667A156.672 156.672 0 0 1 239.36 160.298667z" fill="#9499A0" p-id="9398"></path></svg>