<?xml version="1.0" standalone="no"?><!DOCTYPE svg PUBLIC "-//W3C//DTD SVG 1.1//EN" "http://www.w3.org/Graphics/SVG/1.1/DTD/svg11.dtd"><svg t="1760206005687" class="icon" viewBox="0 0 1024 1024" version="1.1" xmlns="http://www.w3.org/2000/svg" p-id="5696" xmlns:xlink="http://www.w3.org/1999/xlink" width="128" height="128"><path d="M769.742 121.7c12.506-10.868 13.833-29.817 2.964-42.322-10.868-12.506-29.817-13.833-42.322-2.965L253.515 490.857c-12.505 10.869-13.832 29.817-2.964 42.323 10.869 12.505 29.817 13.833 42.323 2.964L769.742 121.7z" fill="#565656" p-id="5697"></path><path d="M728.596 950.56c12.49 10.886 31.441 9.586 42.327-2.904 10.887-12.49 9.586-31.441-2.904-42.327L292.511 490.885c-12.49-10.886-31.44-9.586-42.327 2.904-10.886 12.49-9.585 31.44 2.905 42.327L728.596 950.56z" fill="#565656" p-id="5698"></path></svg>